<?xml version="1.0" standalone="no"?>
<!DOCTYPE svg PUBLIC "-//W3C//DTD SVG 1.1//EN" "http://www.w3.org/Graphics/SVG/1.1/DTD/svg11.dtd">
<svg xmlns="http://www.w3.org/2000/svg">
<metadata>Generated by Fontastic.me</metadata>
<defs>
<font id="aderant-symbol" horiz-adv-x="512">
<font-face font-family="aderant-symbol" units-per-em="512" ascent="480" descent="-32"/>
<missing-glyph horiz-adv-x="512" />

<glyph glyph-name="2-people" unicode="&#97;" d="M345 498c32 0 59-26 59-58 0-33-27-59-59-59-32 0-59 26-59 59 0 32 27 58 59 58m0 20c-44 0-80-36-80-80 0-45 36-80 80-80 45 0 80 35 80 80 0 44-35 80-80 80z m70-168c0 0-27-28-72-28-18 0-32 5-42 11 0-29-13-54-31-72l4-3c39-27 53-91 53-145l143 0 0 104c0 46-20 110-55 133z m-230 41c32 0 59-26 59-58 0-32-27-59-59-59-32 0-59 27-59 59 0 32 27 58 59 58m0 20c-45 0-80-36-80-80 0-45 35-80 80-80 44 0 80 35 80 80 0 44-36 80-80 80z m60-167c0 0-21-29-66-29-44 0-76 29-76 29-34-24-61-88-61-134l0-103 250 0 0 103c0 46-11 110-47 134z"/>
<glyph glyph-name="actions" unicode="&#99;" d="M480 403l-77 77-45-45c-6-6-16-6-22-3-16 3-16 13-16 19l0 61-128 0 0-61c0-9-3-16-10-22-9-3-22 0-28 3l-45 48-77-77 45-45c6-6 6-16 3-22 0-13-13-16-19-16l-61 0 0-128 61 0c9 0 19-3 22-16 3-10 3-16-3-22l-48-45 77-77 45 45c6 6 16 6 22 3 13-3 16-13 16-19l0-61 128 0 0 61c0 9 3 19 13 22 6 3 19 3 25-3l45-45 77 77-45 45c-6 6-6 16-3 22 3 13 13 13 22 13l58 0 0 128-61 0c-9 0-19 6-22 16-3 10-3 16 3 22z m-189-182c-19-19-51-19-70 0-19 19-19 51 0 70 19 19 51 19 70 0 19-19 19-51 0-70"/>
<glyph glyph-name="app-eapro" unicode="&#100;" d="M0 512l54 0c39-26 74-54 109-86-64-36-105-100-105-176 0-112 89-202 201-202 23 0 48 3 67 13 0-13 0-26 0-42 0-6 0-13 0-19l-326 0z m512-512l-122 0c0 6 0 13 0 19 0 26 0 51-3 74 45 38 74 93 74 157 0 112-90 201-202 201-9 0-22 0-32-3-19 22-41 45-67 64l352 0z m-176 237c-10 0-16 3-19 13l-23 0c0-13-6-26-12-32l16-26c3 0 6 0 9 0 19 0 32-16 32-32 0-19-16-32-32-32-19 0-32 16-32 32 0 10 3 19 10 22l-19 26c-4 0-10-3-16-3-10 0-23 3-29 9l-3 0c0-3 3-6 3-9 0-16-13-26-26-26-16 0-25 13-25 26 0 16 12 25 25 25 3 0 10 0 13-3l6 3c-6 7-6 13-6 20 0 6 0 9 3 16l-41 28c-4 0-4 0-7 0-9 0-19 10-19 20 0 9 10 19 19 19 10 0 19-10 19-19 0-4 0-4 0-7l36-25c9 9 19 12 32 12l6 36c-10 3-16 12-16 25 0 16 13 29 29 29 16 0 29-13 29-29 0-13-10-25-23-29l-6-35c9-6 19-16 22-29l19 0c4 10 13 20 23 20 13 0 22-10 22-23 3-13-6-22-19-22z"/>
<glyph glyph-name="app-matterworks" unicode="&#102;" d="M179 176l163 0 0 128-163 0z m141 26l-51 0 0 16 51 0z m-93 83l93 0 0-16-93 0z m0-32l42 0 0-16-42 0z m-35 32l16 0 0-16-16 0z m0-32l16 0 0-16-16 0z m0-32l16 0 0-16-16 0z m-29 291c23-19 45-42 64-64 10 3 23 3 32 3 112 0 202-89 202-201 0-64-29-119-74-157 3-26 3-48 3-74 0-6 0-16 0-22l122 0 0 515z m-16-368l227 0 0 192-227 0z m19 176l192 0 0-157-192 0z m93-269c-112 0-201 90-201 202 0 77 41 141 102 176-32 32-67 61-106 86l-54 0 0-515 326 0c0 6 0 16 0 22 0 13 0 26 0 42-19-10-44-13-67-13z"/>
<glyph glyph-name="app-otgcase" unicode="&#104;" d="M256 48c-112 0-202 90-202 202 0 76 42 140 106 176-32 32-67 60-109 86l-51 0 0-512 323 0c0 6 0 13 0 19 0 13 0 26 0 42-19-7-45-13-67-13z m-29 230l-83 0 0-121 224 0 0 102-118 0z m-70 234c22-19 48-42 67-64 10 3 22 3 32 3 112 0 202-89 202-201 0-64-29-119-74-157 3-26 3-48 3-74 0-6 0-13 0-19l125 0 0 512z m96-237l80 0 0 90-154 0 0-71 58 0z m-45 55l96 0 0-16-96 0z"/>
<glyph glyph-name="app-otgexpenses" unicode="&#105;" d="M259 48c-112 0-201 90-201 202 0 76 41 140 102 176-32 32-67 60-109 86l-51 0 0-512 326 0c0 6 0 13 0 19 0 13 0 26 0 42-19-7-44-13-67-13z m48 317l-144 0 0-231 35 23 36-23 28 23 32-23 29 23 32-23 0 189c0 0-3 10-19 26-16 13-29 16-29 16z m16-141l-121 0 0 16 121 0z m0 42l-121 0 0 16 121 0z m-22 48l0 44 45-44z m-141 198c22-19 45-42 67-64 10 3 23 3 32 3 112 0 202-89 202-201 0-64-29-119-74-157 3-26 3-48 3-74 0-6 0-13 0-19l122 0 0 512z"/>
<glyph glyph-name="app-otgtime" unicode="&#106;" d="M259 49c-112 0-201 90-201 202 0 77 41 141 105 176-32 32-67 61-105 86l-58 0 0-512 326 0c0 7 0 13 0 19 0 13 0 29 0 42-22-6-44-13-67-13z m0 330c-70 0-128-58-128-128 0-71 58-128 128-128 71 0 128 57 128 128 0 70-57 128-128 128z m32-183l-48 52 0 70 26 0 0-61 41-41z m-131 317c22-19 45-41 67-64 10 0 19 3 32 3 112 0 202-89 202-201 0-61-29-119-71-154 4-25 4-51 4-77 0-6 0-12 0-19l118 0 0 512z"/>
<glyph glyph-name="app-otgwip" unicode="&#107;" d="M246 280c-9-9-12-22-6-28 3-4 3-4 6-4 0 0 0 0 4 0 6 0 12 4 16 10 9 10 12 22 6 29-3 6-16 3-26-7z m13-230c-112 0-201 90-201 202 0 76 41 140 102 176-32 32-67 60-106 86l-54 0 0-515 326 0c0 6 0 16 0 22 0 13 0 26 0 42-19-10-44-13-67-13z m-96 461c23-19 45-42 64-64 10 3 23 3 32 3 112 0 202-90 202-202 0-64-29-118-74-156 3-26 3-48 3-74 0-6 0-16 0-22l122 0 0 515z m231-269l6 6-6 4 3 6-3 3 3 7-3 3 3 6-55 26 4 3-87 38-3-3-51 23-87-87 7-3-7-6 7-4-10-9 7 0-7-7 7-3-7-6 67-32 0-7 93-41 0 6 55-25 70 102z m-135-26l0-38-61 26 0 38 68 86 57-28z"/>
<glyph glyph-name="app-otgworkflow" unicode="&#108;" d="M326 0l-326 0 0 512 51 0c42-26 77-54 109-86-61-36-102-103-102-176 0-112 89-202 201-202 23 0 48 3 67 13 0-13 0-26 0-42 0-6 0-13 0-19z m61 221l-83 0 0 19-35 0 0-64 35 0 0 26 83 0 0-64-83 0 0 19-93 0 0-19-80 0 0 64 83 0 0-29 36 0 0 64-39 0 0-19-80 0 0 57 83 0 0-19 36 0 0 64-39 0 0-29-80 0 0 64 83 0 0-19 55 0 0-83 35 0 0 22 83 0z m125-221l-122 0c0 6 0 13 0 19 0 26 0 51-3 74 45 38 74 93 74 157 0 112-90 201-202 201-13 0-22-3-35-3-19 22-42 45-67 64l355 0z"/>
<glyph glyph-name="app-spotlight" unicode="&#109;" d="M0 512l51 0c42-26 77-54 112-86-64-36-105-103-105-176 0-112 89-202 201-202 23 0 45 3 67 13 0-13 0-26 0-42 0-6 0-13 0-19l-326 0z m275-310c3 0 3 0 7 0 3 0 3 0 3 0 9 0 19 0 29 0 0 0 3 0 6 0l-163 160 221-176c0 0 0 0 3-4 0 0 3-3 3-3 0-13-45-25-99-25-13 0-26 0-39 3 0 0-3 0-3 0-3 0-9 0-13 3-3 0-3 0-6 0-3 0-3 0-6 0-4 0-7 0-10 3 0 0-3 0-3 0-3 0-7 3-7 3-3 0-3 4-6 4-3 0-3 3-3 3l0 3-64 166 77-150c0 0 0 0 3 0 3 0 9 3 16 3 3 0 3 0 6 0 7 0 13 3 19 3 0 0 4 0 4 0 6 0 16 0 25 4z m237-202l-122 0c0 6 0 13 0 19 0 26 0 51-3 74 45 35 74 93 74 153 0 112-90 202-202 202-13 0-22 0-32 0-22 22-45 45-70 64l355 0z"/>
<glyph glyph-name="applications" unicode="&#110;" d="M352 80l-352 0 0 352 352 0z m-304 48l256 0 0 256-256 0z m422 247l0-16 26 0 0-205-26 0 0-16 42 0 0 237z m-48 19l0-26 29 0 0-224-29 0 0-25 48 0 0 275z m-57 19l0-29 35 0 0-256-35 0 0-29 57 0 0 314z m-83-157l-106 77 0-42-93 0 0-70 93 0 0-42z"/>
<glyph glyph-name="arrow-down" unicode="&#111;" d="M256 106l256 252-48 48-208-208-208 208-48-44z"/>
<glyph glyph-name="arrow-down-double" unicode="&#112;" d="M129 168l-35 0 71-146 72 146-36 0 0 365-72 0z m180 0l-36 0 72-146 71 146-35 0 0 365-72 0z"/>
<glyph glyph-name="arrow-down-solid" unicode="&#113;" d="M256 26l-256 443 512 0z"/>
<glyph glyph-name="arrow-left" unicode="&#114;" d="M102 256l256-256 47 47-204 209 209 209-52 47z"/>
<glyph glyph-name="arrow-right" unicode="&#115;" d="M406 256l-252-256-48 48 208 208-208 208 44 48z"/>
<glyph glyph-name="arrow-right-solid" unicode="&#116;" d="M477 256l-445-256 0 512z"/>
<glyph glyph-name="arrow-up" unicode="&#117;" d="M256 410l-256-256 46-52 210 210 210-210 46 52z"/>
<glyph glyph-name="arrow-up-double" unicode="&#118;" d="M129 337l-35 0 71 146 72-146-36 0 0-365-72 0z m180 0l-36 0 72 146 71-146-35 0 0-365-72 0z"/>
<glyph glyph-name="back" unicode="&#119;" d="M222 320l0 64-205-128 205-128 0 64 307 0 0 128z"/>
<glyph glyph-name="badge" unicode="&#120;" d="M502 259c-6 13-9 29-3 45 7 22-3 48-22 64-13 10-19 22-23 38-3 26-22 45-44 48-16 4-29 13-39 26-13 19-38 29-64 22-13-6-29-6-41 4-23 9-48 9-68-7-9-13-25-16-41-16-26 3-48-13-58-35-6-13-16-26-32-32-22-6-35-29-35-54 0-16-3-29-13-42-19-19-22-45-9-67 6-13 6-29 3-45-7-22 3-48 22-64 13-10 19-22 23-38 3-26 22-45 44-48 16-4 29-13 39-26 13-19 38-29 64-22 16 3 29 3 45-7 22-13 48-9 67 7 13 9 25 16 41 12 26-3 48 13 58 36 6 12 16 25 32 32 22 9 38 32 35 57 0 16 3 29 16 42 13 22 16 48 3 70z m-246-205c-112 0-202 90-202 202 0 112 90 202 202 202 112 0 202-90 202-202 0-112-90-202-202-202z m176 202c0-97-79-176-176-176-97 0-176 79-176 176 0 97 79 176 176 176 97 0 176-79 176-176z"/>
<glyph glyph-name="bookmark" unicode="&#121;" d="M506 0l-253 170-247-170 0 512 500 0z"/>
<glyph glyph-name="building" unicode="&#122;" d="M57 512l0-512 398 0 0 512z m370-484l-86 0 0 86-170 0 0-86-86 0 0 456 342 0z m-256 259l57 0 0 57-57 0z m0 88l57 0 0 57-57 0z m0-176l57 0 0 57-57 0z m113 88l57 0 0 57-57 0z m0 88l57 0 0 57-57 0z m0-176l57 0 0 57-57 0z"/>
<glyph glyph-name="building-circle" unicode="&#65;" d="M256 496c133 0 240-107 240-240 0-133-107-240-240-240-133 0-240 107-240 240 0 133 107 240 240 240m0 16c-141 0-256-115-256-256 0-141 115-256 256-256 141 0 256 115 256 256 0 141-115 256-256 256z m96-128l0-256-192 0 0 256 192 0m16 16l-224 0 0-288 224 0z m-160-288l96 0 0 64-96 0z m0 162l32 0 0 32-32 0z m0 49l32 0 0 32-32 0z m0-99l32 0 0 32-32 0z m64 50l32 0 0 32-32 0z m0 49l32 0 0 32-32 0z m0-99l32 0 0 32-32 0z"/>
<glyph glyph-name="calendar" unicode="&#66;" d="M512 320l0 96-512 0 0-96 160 0 0-64-128 0 0-32 128 0 0-96-128 0 0-32 128 0 0-64 32 0 0 64 128 0 0-64 32 0 0 64 128 0 0 32-128 0 0 96 128 0 0 32-128 0 0 64z m-192-192l-128 0 0 96 128 0z m0 128l-128 0 0 64 128 0z m128 192l0 64-64 0 0-64-256 0 0 64-64 0 0-64-64 0 0-448 512 0 0 448z m32-416l-448 0 0 384 448 0z"/>
<glyph glyph-name="camera" unicode="&#67;" d="M336 416l22-48 10-16 112 0 0-256-448 0 0 256 112 0 10 16 22 48 144 0m35 32l-198 0-32-64-125 0 0-320 512 0 0 320-125 0z m-99-166c32 0 58-26 58-58 0-32-26-54-58-54-32 0-58 25-58 57 0 32 26 55 58 55m0 32c-48 0-90-39-90-90 0-51 42-86 90-86 48 0 90 38 90 89 0 51-42 87-90 87z m166-26l32 0 0 32-32 0z"/>
<glyph glyph-name="category" unicode="&#68;" d="M493 512l-211-19c-4 0-7-3-10-7l-266-278c-6-6-6-16 0-22l192-183c7-6 16-6 23 0l265 282c4 3 4 6 4 9l22 199c0 9-6 19-19 19z m-29-77c-16 0-29 13-29 29 0 16 13 29 29 29 16 0 29-13 29-29 0-16-13-29-29-29z"/>
<glyph glyph-name="clock" unicode="&#70;" d="M256 480c124 0 224-100 224-224 0-124-100-224-224-224-124 0-224 100-224 224 0 124 100 224 224 224m0 32c-141 0-256-115-256-256 0-141 115-256 256-256 141 0 256 115 256 256 0 141-115 256-256 256z m52-338l-84 71 0 139 32 0 0-125 69-61z"/>
<glyph glyph-name="completed-workflow" unicode="&#71;" d="M363 474c-70 0-128-58-128-128 0-71 58-128 128-128 71 0 128 57 128 128 0 70-57 128-128 128z m-3-176l-26-23-67 67 23 23 44-45 96 96 23-22z m86-132l0 58c0 0-3 0-3-3 0 0-3 0-3-3-3 0-10-7-16-10-3 0-3-3-6-3l-4 0c-16-7-35-10-54-10-26 0-51 7-74 19-6 4-16 10-25 16l-39 0 0 48c-9 20-16 45-16 71 0 3 0 6 0 9 0 10 4 23 7 32l-83 0 0 32-128 0 0-96 128 0 0 32 64 0 0-128-64 0 0 64-128 0 0-128 128 0 0 32 64 0 0-112-64 0 0 48-128 0 0-96 128 0 0 16 160 0 0-16 160 0 0 96-160 0 0-48-64 0 0 112 64 0 0-32z m-352 192l-64 0 0 32 64 0z m0-160l-64 0 0 64 64 0z m0-128l-64 0 0 32 64 0z m224 32l96 0 0-32-96 0z"/>
<glyph glyph-name="cross" unicode="&#72;" d="M352 387l-96-96-96 96-35-35 96-96-96-96 35-35 96 96 96-96 35 35-96 96 96 96z"/>
<glyph glyph-name="cross-circle" unicode="&#73;" d="M256 480c125 0 224-99 224-224 0-125-99-224-224-224-125 0-224 99-224 224 0 125 99 224 224 224m0 32c-141 0-256-115-256-256 0-141 115-256 256-256 141 0 256 115 256 256 0 141-115 256-256 256z m96-125l-96-96-96 96-35-35 96-96-96-96 35-35 96 96 96-96 35 35-96 96 96 96z"/>
<glyph glyph-name="document" unicode="&#74;" d="M346 480l102-115 0-333-384 0 0 448 288 0m0 32l-320 0 0-512 448 0 0 378z m96-160l-128 0 0 128 32 0 0-96 96 0z"/>
<glyph glyph-name="document-torn" unicode="&#75;" d="M448 480l0-429-35 16-16 7-13-10-58-29-57 29-13 10-16-10-58-29-54 29-13 6-19-6-32-16 0 298 131 134 253 0m32 32l-301 0-147-154 0-358 80 35 70-35 71 35 73-35 74 35 80-35z m-256-192l-160 0 0 32 128 0 0 128 32 0z"/>
<glyph glyph-name="edit-spotlight" unicode="&#77;" d="M413 509l96-83-368-381-93 89z m-371-391l80-80-119-38z"/>
<glyph glyph-name="ellipsis" unicode="&#78;" d="M128 256c0 35-29 64-64 64-35 0-64-29-64-64 0-35 29-64 64-64 35 0 64 29 64 64z m192 0c0 35-29 64-64 64-35 0-64-29-64-64 0-35 29-64 64-64 35 0 64 29 64 64z m192 0c0 35-29 64-64 64-35 0-64-29-64-64 0-35 29-64 64-64 35 0 64 29 64 64z"/>
<glyph glyph-name="email" unicode="&#79;" d="M0 422l0-352 512 0 0 352z m35-73l154-125-154-102z m176-141l45-42 51 39 154-103-397 0z m119 22l147 119 0-221z m147 164l-221-186-221 179 0 7z"/>
<glyph glyph-name="email-document" unicode="&#80;" d="M346 480l102-115 0-333-384 0 0 448 288 0m0 32l-320 0 0-512 448 0 0 378z m96-160l-128 0 0 128 32 0 0-96 96 0z m-336-70l0-199 288 0 0 199z m19-42l87-70-87-58z m99-80l26-22 29 22 86-58-224 0z m68 13l83 67 0-125z m83 93l-125-106-125 102 0 4z"/>
<glyph glyph-name="email-document-attachment" unicode="&#81;" d="M352 512l-320 0 0-512 448 0 0 378z m0-38l80-90-80 0z m96-442l-384 0 0 448 256 0 0-128 128 0z m-106 195c-48 0-86-38-86-86 0-48 38-87 86-87 48 0 87 39 87 87 0 48-39 86-87 86z m45-144c-9-9-29-9-38 0l-67 67 6 7 67-67c7-7 19-7 29 0 6 6 6 19 0 28l-67 68c-7 6-13 6-19 0-7-7-4-13 0-20l67-67c0 0 3-3 6 0 3 3 3 3 0 7l-54 54 3 6 54-54c7-6 4-13 0-16-6-6-12-6-19 0l-64 64c-9 10-9 22 0 32 10 10 23 10 32 0l67-67c10-13 10-29-3-42z m-141 48l-124 0 83 58 25-19 29 22c13 16 29 32 51 38l48 39 0-35c7 0 13-4 20-4l0 80-288 0 0-192 163 0c-3 4-3 10-7 13z m-140 163l249 0 0-3-121-99-125 99 0 3z m0-25l86-67-86-58z"/>
<glyph glyph-name="excel-document" unicode="&#82;" d="M346 480l102-115 0-333-384 0 0 448 288 0m0 32l-320 0 0-512 448 0 0 378z m96-160l-128 0 0 128 32 0 0-96 96 0z m-189-67l48 0 32-87 32 87 45 0-58-109 58-115-45 0-32 93-32-93-48 0 55 115z"/>
<glyph glyph-name="export" unicode="&#83;" d="M0 237l0-160 512 0 0 160-51 38-128 0-26-57-105 0-32 57-119 0m416-157l-422 0 0 119 102 0 32-58 157 0 26 58 108 0 0-119z m-211 343l-77-106 42 0 0-57 70 0 0 57 42 0z"/>
<glyph glyph-name="failed-to-load" unicode="&#84;" d="M343 69c0 9 0 15 0 15-27 0-51-3-54 46l190 36-45 226-404-79 45-226 175 33c0-33-6-36-51-36 0-9 0-12 0-15m120 241l15-12 12 18 9-3-12-18 18-15-6-6-18 9-12-15-6 3 12 18-18 12z m-81-105l54 9c3 0 9-3 9-6 0-3-3-9-9-9l-54-9c-3 0-6 3-6 6-3 3 0 9 6 9z m-96 69l18-12 9 18 9-6-12-18 18-12-6-6-18 12-12-18-6 6 12 18-18 12z m-61-175l-6 37 386 78 6-39z m66 329c-2 5-7 7-12 5-4-2-7-7-5-12 2-4 7-7 12-5 5 2 7 7 5 12z m-48-42l-6-10-3 13-12 3 9 6 0 12 9-6 12 3-3-12 6-9z m49 0l9-13-9-12-12 6 0 12z"/>
<glyph glyph-name="faulted-workflow" unicode="&#85;" d="M446 166l0 58c0 0-3 0-3-3 0 0-3 0-3-3-3 0-10-7-16-10-3 0-3-3-6-3l-4 0c-16-7-35-10-54-10-26 0-51 7-74 19-6 4-16 10-25 16l-39 0 0 48c-9 20-16 45-16 71 0 3 0 6 0 9 0 10 4 23 7 32l-83 0 0 32-128 0 0-96 128 0 0 32 64 0 0-128-64 0 0 64-128 0 0-128 128 0 0 32 64 0 0-112-64 0 0 48-128 0 0-96 128 0 0 16 160 0 0-16 160 0 0 96-160 0 0-48-64 0 0 112 64 0 0-32z m-352 192l-64 0 0 32 64 0z m0-160l-64 0 0 64 64 0z m0-128l-64 0 0 32 64 0z m224 32l96 0 0-32-96 0z m45 372c-70 0-128-58-128-128 0-71 58-128 128-128 71 0 128 57 128 128 0 70-57 128-128 128z m71-167l-32-32-42 39-35-39-32 32 38 39-41 38 32 32 38-38 38 38 32-32-35-38z"/>
<glyph glyph-name="filter" unicode="&#86;" d="M470 512l-428 0c-16 0-23-16-16-26l185-265c3-3 3-7 3-10l0-195c0-10 7-16 16-16l52 0c9 0 16 6 16 16l0 195c0 3 0 7 3 10l185 265c7 10 0 26-16 26z"/>
<glyph glyph-name="flag" unicode="&#87;" d="M32 0l32 0 0 512-32 0z m448 157c0 0-118-58-205 38-64 71-179 13-179 13l0 291c0 0 134 42 192-25 67-84 192-26 192-26z"/>
<glyph glyph-name="folder" unicode="&#88;" d="M81 512l0-396 196-116 0 71 80-23 0 68 73 0 0 396z m164-300l0-154-132 77 0 320 173-99 0-112z m92 217l0-358-64 19 0 106 45 32 0 147-189 112m266-339l-42 0 0 294-144 38 189 0 0-332z"/>
<glyph glyph-name="graph" unicode="&#90;" d="M0 0l128 0 0 64-128 0z m195 0l128 0 0 288-128 0z m189 0l128 0 0 512-128 0z"/>
<glyph glyph-name="image-document" unicode="&#48;" d="M346 480l102-115 0-333-384 0 0 448 288 0m0 32l-320 0 0-512 448 0 0 378z m96-160l-128 0 0 128 32 0 0-96 96 0z m-362-294l336 0c0 0 0 195-73 195-42 0-29-119-96-122-42-3-71 26-96 10-26-16-71-83-71-83z m106 150c0-16-13-29-29-29-16 0-29 13-29 29 0 16 13 29 29 29 16 0 29-13 29-29z"/>
<glyph glyph-name="inbox" unicode="&#49;" d="M464 435l-416 0-48-198 0-160 512 0 0 160z m-384-41l352 0 29-119-128 0-26-57-105 0-32 57-119 0z m387-276l-422 0 0 119 102 0 32-58 157 0 26 58 108 0 0-119z"/>
<glyph glyph-name="invisible" unicode="&#50;" d="M413 358l-26-28c26-20 51-42 77-74-32-38-112-118-211-118-10 0-16 0-26 3l-29-32c20-3 36-7 55-7 150 0 259 154 259 154-35 45-67 77-99 102z m-157-195c51 0 93 42 93 93 0 10 0 16-3 26l-100-119c4 0 7 0 10 0z m-144-99l-48 0 336 384 48 0z m-64 192c35 38 115 115 211 115 13 0 23 0 35-3l29 32c-22 6-41 10-64 10-150 0-259-154-259-154 35-45 70-77 102-102l26 28c-26 20-54 45-80 74z m115 0c0-10 3-19 7-29l108 119c-9 3-16 3-22 3-51 0-93-42-93-93z"/>
<glyph glyph-name="lens" unicode="&#51;" d="M256 512c-141 0-256-115-256-256 0-141 115-256 256-256 141 0 256 115 256 256 0 141-115 256-256 256z m0-480c-125 0-224 99-224 224 0 125 99 224 224 224 125 0 224-99 224-224 0-125-99-224-224-224z m134 358l-134-134 0 192c-106 0-192-86-192-192 0-106 86-192 192-192 106 0 192 86 192 192 0 54-22 102-58 134z"/>
<glyph glyph-name="link" unicode="&#52;" d="M349 310l-151-150c-9-10-28-10-38 0-10 10-10 29 0 38l150 151c10 9 29 9 39 0 13-10 13-26 0-39z m-131-208l-36-35c-32-32-86-32-118 0-32 32-32 87 0 119l35 35c23 22 51 29 80 22l35 35c-44 20-96 13-134-22l-48-48c-45-45-45-122 0-166 45-45 122-45 166 0l48 48c42 28 48 83 29 128l-35-36c6-28 0-60-22-80z m92 375l-48-48c-38-35-44-90-25-135l35 36c-6 28 0 57 22 80l36 35c32 32 86 32 118 0 32-32 32-87 0-119l-38-32c-20-22-52-28-80-22l-36-35c45-19 96-13 135 22l48 48c45 45 45 122 0 167-45 51-122 51-167 3z"/>
<glyph glyph-name="lock" unicode="&#53;" d="M427 256l0 85c0 94-77 171-171 171-94 0-171-77-171-171l0-85-42 0 0-256 426 0 0 256z m-256 0l0 90c0 55 30 102 85 102 55 0 85-47 85-102l0-90z"/>
<glyph glyph-name="lock-circle" unicode="&#54;" d="M256 480c125 0 224-99 224-224 0-125-99-224-224-224-125 0-224 99-224 224 0 125 99 224 224 224m0 32c-141 0-256-115-256-256 0-141 115-256 256-256 141 0 256 115 256 256 0 141-115 256-256 256z m96-224l0 48c0 51-45 93-96 93-51 0-96-42-96-93l0-48-32 0 0-160 256 0 0 160z m-32 0l-128 0 0 51c0 32 32 55 64 55 32 0 64-26 64-55z"/>
<glyph glyph-name="matter" unicode="&#55;" d="M128 384l256 0 0 32-256 0z m320-64l0 192-384 0 0-160-64 0 0-352 512 0 0 320z m-352 160l320 0 0-160-176 0-48 32-96 0z m384-448l-448 0 0 288 147 0 45-32 256 0z"/>
<glyph glyph-name="menu" unicode="&#56;" d="M0 448l512 0 0 64-512 0z m0-448l512 0 0 64-512 0z m0 224l512 0 0 64-512 0z"/>
<glyph glyph-name="minus" unicode="&#57;" d="M0 224l512 0 0 64-512 0z"/>
<glyph glyph-name="mov-document" unicode="&#34;" d="M346 480l102-115 0-333-384 0 0 448 288 0m0 32l-320 0 0-512 448 0 0 378z m96-160l-128 0 0 128 32 0 0-96 96 0z m-314-147l0-55 180 0 0 55 64-42 0 138-64-51 0 64-180 0z"/>
<glyph glyph-name="note" unicode="&#36;" d="M480 480l0-448-448 0 0 448 448 0m32 32l-512 0 0-512 512 0z m-138-83l-262-263-19-83 86 16 259 263z"/>
<glyph glyph-name="outcome-circle" unicode="&#37;" d="M256 480c125 0 224-99 224-224 0-125-99-224-224-224-125 0-224 99-224 224 0 125 99 224 224 224m0 32c-141 0-256-115-256-256 0-141 115-256 256-256 141 0 256 115 256 256 0 141-115 256-256 256z m45-307l0-32-26 0 0 61 26 28-26 0 0 36 87 54-106 80-102-80 89-58 0-32-29 0 29-32 0-57-32 0 0 32-99 0 0-93 99 0 0 29 90 0 0-29 99 0 0 93z"/>
<glyph glyph-name="paper-clip" unicode="&#38;" d="M54 486c-35-35-35-92 0-128l282-281c22-23 54-19 74 3 19 19 25 48 0 74l-231 230-25-26 230-230c6-6 6-16 0-26-10-9-22-6-26-3l-281 282c-23 22-23 57 0 80 22 22 57 19 80-3l281-282c32-32 32-86 0-118-32-32-86-32-118 0l-282 281-25-25 281-282c48-48 122-48 170 0 48 48 48 122 0 170l-282 281c-35 39-92 39-128 3z"/>
<glyph glyph-name="pause" unicode="&#39;" d="M57 0l142 0 0 512-142 0z m256 0l142 0 0 512-142 0z"/>
<glyph glyph-name="pdf-document" unicode="&#40;" d="M346 480l102-115 0-333-384 0 0 448 288 0m0 32l-320 0 0-512 448 0 0 378z m96-160l-128 0 0 128 32 0 0-96 96 0z m-134-227c0 13 3 35-10 51-13 16-22 19-29 22-16 4-67 0-67 0l0-137c0 0 51 0 67 0 10 0 13 0 26 16 13 16 16 35 13 48z m-26-23c-3-6-10-12-13-16-3 0-41 0-41 0l0 87c0 0 35 0 41-3 7-4 10-4 16-16-3-7 0-45-3-52z m54 96l0-137 26 0 0 57 58 0 0 26-61 0 0 32 67 0 0 22z m-160-25c-3 6-12 13-16 16-6 6-22 6-22 6l-64 0 0-134 29 0 0 51 41 0c0 0 13 3 20 10 6 6 9 19 9 19 0 0 3 25 3 32z m-25-19c0-7-3-10-10-16-3-4-13-4-13-4l-28 0 0 39c0 0 25 3 28 0 0 0 10 0 13-3 10-4 13-7 10-16z"/>
<glyph glyph-name="person" unicode="&#41;" d="M256 486c42 0 74-35 74-73 0-42-36-74-74-74-42 0-74 35-74 74 0 41 32 73 74 73m0 26c-54 0-102-45-102-102 0-55 44-103 102-103 54 0 102 45 102 103 0 57-48 102-102 102z m106-211c0 0-42-35-100-35-57 0-108 35-108 35-42-29-90-112-90-167l0-134 384 0 0 134c0 55-42 138-86 167z"/>
<glyph glyph-name="person-circle" unicode="&#42;" d="M256 496c133 0 240-107 240-240 0-133-107-240-240-240-133 0-240 107-240 240 0 133 107 240 240 240m0 16c-141 0-256-115-256-256 0-141 115-256 256-256 141 0 256 115 256 256 0 141-115 256-256 256z m0-115c19 0 35-11 42-28 7-18 3-37-10-50-13-13-33-17-50-10-17 7-28 24-28 43 1 25 21 45 46 45m0 16c-25 0-48-15-57-38-10-24-4-50 14-68 17-17 44-22 67-13 23 10 38 33 38 58-1 34-28 61-62 61z m54-130c-15-14-35-21-55-22-20 0-39 8-53 22-27-18-42-67-42-101l0-70 192 0 0 70c0 34-16 83-42 101z"/>
<glyph glyph-name="plus" unicode="&#43;" d="M512 299l-213 0 0 213-86 0 0-213-213 0 0-86 213 0 0-213 86 0 0 213 213 0z"/>
<glyph glyph-name="popout" unicode="&#44;" d="M501 350l0-350-350 0 0 350z m-32-321l0 289-289 0 0-289c0 0 289 0 289 0z m-108 480l0-121-29 0 0 92-289 0 0-289 64 0 0-32-96 0 0 350z"/>
<glyph glyph-name="powerpoint-document" unicode="&#45;" d="M346 480l102-115 0-333-384 0 0 448 288 0m0 32l-320 0 0-512 448 0 0 378z m96-160l-128 0 0 128 32 0 0-96 96 0z m-67-74c-32 16-90 0-90 0l0-220 35 0 0 80c0 0 42-7 68 9 22 19 22 48 22 71 0 22-3 44-35 60z m-26-105c-13-3-25 0-25 0l0 77c0 0 12 6 25 3 26-10 26-29 26-42 0-16 0-32-26-38z"/>
<glyph glyph-name="print" unicode="&#46;" d="M352 448l0-64-192 0 0 64 192 0m32 32l-256 0 0-128 256 0z m3-160l-387 0 0-256 128 0 0-32 256 0 0 32 128 0 0 256z m-35-256l-192 0 0 128 192 0z m128 32l-96 0 0 128-256 0 0-128-96 0 0 192 448 0z m-288 64l128 0 0-32-128 0z"/>
<glyph glyph-name="processes" unicode="&#47;" d="M512 336l-64 0 0 112-288 0 0 64-160 0 0-160 160 0 0 64 256 0 0-80-64 0 0-160 64 0 0-86-256 0 0 70-160 0 0-160 160 0 0 58 288 0 0 118 64 0z"/>
<glyph glyph-name="question" unicode="&#58;" d="M186 144l0 29c0 22 6 45 16 61 9 16 28 35 54 54 26 19 42 32 51 45 10 13 13 25 13 38 0 16-6 29-19 35-13 7-29 16-48 16-39 0-80-12-125-35l-42 80c55 29 112 45 173 45 51 0 93-13 122-35 29-26 45-58 45-96 0-26-7-51-20-71-12-22-35-44-70-67-22-19-38-32-45-41-3-10-6-20-6-36l0-22z m70-144l-42 0c-16 0-28 13-28 29l0 41c0 16 12 29 28 29l42 0c16 0 29-13 29-29l0-41c0-16-13-29-29-29z"/>
<glyph glyph-name="question-circle" unicode="&#59;" d="M218 192l0 16c0 13 3 26 9 35 7 10 16 19 32 32 16 10 26 19 29 26 0 6 3 13 3 19 0 10-3 16-9 19-7 7-16 10-29 10-19 0-45-7-71-19l-22 44c32 16 64 26 99 26 29 0 51-6 67-19 16-16 26-32 26-58 0-16-3-29-10-38-9-10-22-23-41-35-13-13-19-20-26-23-3-6-3-13-3-22l0-13z m25-80c-16 0-29 13-29 29 0 16 13 29 29 29 16 0 29-13 29-29 0-16-13-29-29-29z m13 368c125 0 224-99 224-224 0-125-99-224-224-224-125 0-224 99-224 224 0 125 99 224 224 224m0 32c-141 0-256-115-256-256 0-141 115-256 256-256 141 0 256 115 256 256 0 141-115 256-256 256z"/>
<glyph glyph-name="recursive" unicode="&#60;" d="M352 451c-3 13-10 23-19 32-35 35-93 35-125 0-35-35-35-93 0-125 35-35 93-35 125 0 3 4 6 7 6 10 58-26 96-83 90-150-10-80-80-138-160-128-80 9-138 80-128 160l3 28 54-6-76 125-122-106 58-6-4-29c-12-125 77-240 205-253 125-13 237 80 253 205 10 112-58 211-160 243z"/>
<glyph glyph-name="report" unicode="&#61;" d="M448 480l0-448-384 0 0 448 384 0m32 32l-448 0 0-512 448 0z m-352-416l256 0 0 64-256 0z m0 128l256 0 0 64-256 0z m0 128l256 0 0 64-256 0z"/>
<glyph glyph-name="reset" unicode="&#62;" d="M342 480l-32-86c26-10 48-26 68-48 54-68 41-167-26-221-67-55-163-42-218 25-54 68-41 167 26 221l26 19 35-44 35 153-170 13 39-48-26-19c-105-87-121-243-35-349 86-106 240-125 346-42 108 87 124 244 38 349-29 35-64 61-106 77z"/>
<glyph glyph-name="running-timer" unicode="&#63;" d="M509 166l-285-163 0 327z m-317-105c-93 0-166 73-166 166-4 93 73 170 166 170 64 0 122-39 150-93l36-19c-26 73-96 131-180 134l0 48 96 0 0 45-224 0 0-45 96 0 0-51c-92-10-166-90-166-189 0-105 86-192 192-192z"/>
<glyph glyph-name="running-workflow" unicode="&#64;" d="M360 474c-70 0-128-58-128-128 0-71 58-128 128-128 70 0 128 57 128 128 0 70-58 128-128 128z m74-141l-16 0c-4 0-4-3-7-3 0 0 0-4 0-4 0-3 0-6 0-6l13-13-22-25-13 12c-3 4-3 4-7 0 0 0-3 0-3 0-3 0-3-3-3-6l0-16-32 0 0 19c0 3-3 3-3 7 0 0-3 0-3 0-4 0-7 0-7 0l-13-16-22 22 13 13c0 3 3 6 0 6 0 0 0 3 0 3 0 4-3 4-7 4l-19 0 0 28 19 0c4 4 7 7 7 7 0 0 0 3 0 3 0 3 0 6 0 6l-13 16 22 23 13-13c3-3 3-3 7 0 0 0 3 0 3 0 3 0 3 3 3 6l0 20 29 0 0-23c0-3 3-3 3-6 0 0 3 0 3 0 3 0 7 0 7 0l12 13 23-23-10-13c-3-3-3-3 0-6 0 0 0-3 0-3 0-3 3-3 7-3l19 0 0-29z m-64 1c-6-6-16-6-22 0-6 7-6 17 0 23 6 6 16 6 22 0 7-6 7-16 0-23z m76-168l0 58c0 0-3 0-3-3 0 0-3 0-3-3-3 0-10-7-16-10-3 0-3-3-6-3l-4 0c-16-7-35-10-54-10-26 0-51 7-74 19-6 4-16 10-25 16l-39 0 0 48c-9 20-16 45-16 71 0 3 0 6 0 9 0 10 4 23 7 32l-83 0 0 32-128 0 0-96 128 0 0 32 64 0 0-128-64 0 0 64-128 0 0-128 128 0 0 32 64 0 0-112-64 0 0 48-128 0 0-96 128 0 0 16 160 0 0-16 160 0 0 96-160 0 0-48-64 0 0 112 64 0 0-32z m-352 192l-64 0 0 32 64 0z m0-160l-64 0 0 64 64 0z m0-128l-64 0 0 32 64 0z m224 32l96 0 0-32-96 0z"/>
<glyph glyph-name="save" unicode="&#91;" d="M142 390l233 0 0 42-233 0z m0-99l233 0 0 42-233 0z m-4-224l68 0 0 112-68 0z m-137 445l0-454 57-58 455 0 0 512z m425-486l-339 0 0 179 339 0z m20 214l-378 0 0 240 378 0z"/>
<glyph glyph-name="scope" unicode="&#93;" d="M445 323c0 106-83 189-189 189-106 0-189-83-189-189 0-57 26-109 64-141l125-182 125 182c38 32 64 84 64 141z m-71-115l-118-157-118 157c-29 29-48 70-48 115 0 93 73 167 166 167 93 0 166-74 166-167 0-45-19-86-48-115z m23 115c0 77-64 141-141 141-77 0-141-64-141-141 0-35 13-64 32-89l109-144 109 144c19 22 32 54 32 89z"/>
<glyph glyph-name="search" unicode="&#94;" d="M513 58l-131 130c23 32 32 72 32 113 0 117-95 212-207 212-118 0-208-95-208-212 0-117 95-212 208-212 40 0 81 14 112 32l126-131z m-469 247c0 95 72 167 163 167 90 0 162-76 162-167 0-94-72-166-162-166-91-5-163 72-163 166z"/>
<glyph glyph-name="search-plus" unicode="&#95;" d="M513 58l-131 130c23 32 32 72 32 113 0 117-95 212-207 212-118 0-208-95-208-212 0-117 95-212 208-212 40 0 81 14 112 32l126-131z m-469 247c0 95 72 167 163 167 90 0 162-76 162-167 0-94-72-166-162-166-91-5-163 72-163 166z m135-90l46 0 0 194-46 0z m-72 72l194 0 0 46-194 0z"/>
<glyph glyph-name="setting" unicode="&#96;" d="M461 388l-73 73-42-43c-5-4-13-4-17-4-5 0-9 4-13 4-9 4-17 13-17 17l0 77-86 0 0-77c0-8-8-13-17-17-4 0-8-4-8-4-9-4-17 0-22 4l-42 43-73-73 43-42c4-5 4-13 4-17 0-5-4-9-4-13-4-9-13-17-17-17l-77 0 0-86 77 0c8 0 13-8 17-17 0-4 4-8 4-8 4-9 0-17-4-22l-43-42 73-73 42 43c5 4 13 4 17 4 5 0 9-4 13-4 9-4 17-13 17-17l0-77 86 0 0 77c0 8 8 13 17 17 4 0 8 4 8 4 9 4 17 0 22-4l42-43 73 73-43 42c-4 5-4 13-4 17 0 5 4 9 4 13 4 9 13 17 17 17l77 0 0 86-77 0c-4 0-13 8-17 17 0 4-4 8-4 8 0 9 0 17 4 22z m-171-166c-17-17-47-17-64 0-17 17-17 47 0 64 17 17 47 17 64 0 17-17 17-43 0-64z"/>
<glyph glyph-name="star" unicode="&#124;" d="M256 493l70-193 185 0-149-106 52-197-158 123-158-119 52 193-149 106 185 0z"/>
<glyph glyph-name="suspended-workflow" unicode="&#125;" d="M360 474c-70 0-128-58-128-128 0-71 58-128 128-128 70 0 128 57 128 128 0 70-58 128-128 128z m-16-192l-32 0 0 128 32 0z m64 0l-32 0 0 128 32 0z m38-116l0 58c0 0-3 0-3-3 0 0-3 0-3-3-3 0-10-7-16-10-3 0-3-3-6-3l-4 0c-16-7-35-10-54-10-26 0-51 7-74 19-6 4-16 10-25 16l-39 0 0 48c-9 20-16 45-16 71 0 3 0 6 0 9 0 10 4 23 7 32l-83 0 0 32-128 0 0-96 128 0 0 32 64 0 0-128-64 0 0 64-128 0 0-128 128 0 0 32 64 0 0-112-64 0 0 48-128 0 0-96 128 0 0 16 160 0 0-16 160 0 0 96-160 0 0-48-64 0 0 112 64 0 0-32z m-352 192l-64 0 0 32 64 0z m0-160l-64 0 0 64 64 0z m0-128l-64 0 0 32 64 0z m224 32l96 0 0-32-96 0z"/>
<glyph glyph-name="sync" unicode="&#126;" d="M512 256c0 141-115 256-256 256-141 0-256-115-256-256 0-141 115-256 256-256 141 0 256 115 256 256z"/>
<glyph glyph-name="task" unicode="&#92;" d="M448 448l0-384-384 0 0 384 384 0m32 32l-448 0 0-448 448 0z m-67-141l-29 32-166-166-90 86-29-32 119-118 38 38z"/>
<glyph glyph-name="taskflow" unicode="&#57344;" d="M512 272l-192-160 0 86c-64 0-112-38-112-102l-144 0c0 128 128 250 256 250l0 86z m-96-112l0-96-384 0 0 384 384 0 0-61 32-25 0 118-448 0 0-448 448 0 0 154z"/>
<glyph glyph-name="terminated-workflow" unicode="&#57345;" d="M446 166l0 58c0 0-3 0-3-3 0 0-3 0-3-3-3 0-10-7-16-10-3 0-3-3-6-3l-4 0c-16-7-35-10-54-10-26 0-51 7-74 19-6 4-16 10-25 16l-39 0 0 48c-9 20-16 45-16 71 0 3 0 6 0 9 0 10 4 23 7 32l-83 0 0 32-128 0 0-96 128 0 0 32 64 0 0-128-64 0 0 64-128 0 0-128 128 0 0 32 64 0 0-112-64 0 0 48-128 0 0-96 128 0 0 16 160 0 0-16 160 0 0 96-160 0 0-48-64 0 0 112 64 0 0-32z m-352 192l-64 0 0 32 64 0z m0-160l-64 0 0 64 64 0z m0-128l-64 0 0 32 64 0z m224 32l96 0 0-32-96 0z m45 372c-70 0-128-58-128-128 0-71 58-128 128-128 71 0 128 57 128 128 0 70-57 128-128 128z m67-151l-137 0 0 45 141 0 0-45z"/>
<glyph glyph-name="tick" unicode="&#57346;" d="M512 387l-51 52-272-267-138 139-51-52 189-189 67 61z"/>
<glyph glyph-name="tick-circle" unicode="&#57347;" d="M256 478c125 0 224-99 224-224 0-125-99-224-224-224-125 0-224 99-224 224 0 125 99 224 224 224m0 32c-141 0-256-115-256-256 0-141 115-256 256-256 141 0 256 115 256 256 0 141-115 256-256 256z m160-173l-32 32-170-166-86 86-32-32 118-118 42 38z"/>
<glyph glyph-name="tick-circle-filled" unicode="&#57348;" d="M256 510c-141 0-256-115-256-256 0-141 115-256 256-256 141 0 256 115 256 256 0 141-115 256-256 256z m0-333l-38-38-122 118 32 32 86-86 170 166 32-32z"/>
<glyph glyph-name="timekeeper" unicode="&#57349;" d="M170 108c-17-3-33-7-50-7-24 0-51 4-71 14l0 57c24-10 47-14 71-14 13 0 23 0 37 4 0 7 0 10-4 17-10-4-23-4-33-4-24 0-51 4-74 14l0 54c23-7 47-11 70-11 17 0 31 0 44 4 3 7 3 13 7 20-17-3-34-7-51-7-23 0-47 4-67 10l0 4c24 10 47 13 71 13 13 0 27-3 43-7 4 0 11 0 14-3 3 14 10 24 20 34-13 3-27 6-40 10l0 44c23-7 47-14 70-14 7 0 17 0 24 0 24 14 54 20 81 20l0 101c0 20-47 34-108 34-61 0-104-17-104-34l0-148c-58 0-101-17-108-37 0 0 0-3 0-3l0-165c0-20 47-40 108-40 23 0 47 3 70 10-10 10-16 20-20 30z m-13 340c23 10 47 13 70 13 24 0 51-3 71-10-20-10-47-17-71-13-23-4-47 3-70 10z m0-17c23-10 47-13 70-10 24 0 51 3 74 10l0-54c-23-13-47-20-74-17-23 0-50 4-74 17z m333-246c0-87-71-158-158-158-88 0-158 71-158 158 0 88 70 158 158 158 87 0 158-70 158-158z m-165 97c17 0 32-15 32-32 0-18-15-31-32-31-18 0-33 14-33 31 0 17 15 32 33 32m0 11c-24 0-44-19-44-43 0-25 20-43 44-43 23 0 43 19 43 44 0 23-20 42-43 42z m37-90c-11-10-24-16-38-16-14 0-28 6-37 16-19-12-29-47-29-70l0-49 133 0 0 49c0 23-11 58-29 70z"/>
<glyph glyph-name="timer" unicode="&#57350;" d="M250 192l150 0c-3 77-64 141-144 141-3 0-6 0-6 0z m12 189l0 51 96 0 0 42-224 0 0-45 96 0 0-51c-92-10-166-90-166-186 0-106 86-192 192-192 106 0 192 86 192 192-3 102-83 186-186 189z m-6-359c-93 0-166 74-166 167 0 93 73 166 166 166 93 0 166-73 166-166 0-90-76-167-166-167z"/>
<glyph glyph-name="totals" unicode="&#57351;" d="M0 0l128 0 0 256-128 0z m192 0l128 0 0 384-128 0z m192 0l128 0 0 512-128 0z"/>
<glyph glyph-name="trigger" unicode="&#57352;" d="M429 189c3 9 13 16 19 16l64 0 0 105-64 0c-10 0-16 7-19 13 0 3-3 7-3 10-4 6 0 13 3 19l45 45-74 73-45-44c-6-4-16-7-22-4-3 0-7 4-10 4-9 3-13 9-13 19l0 61-105 0 0-61c0-10-7-16-13-19-3 0-6-4-10-4-6-3-16-3-22 4l-45 44-77-73 45-45c7-6 7-16 3-22 0-4-3-7-3-10-3-6-13-13-19-13l-64 0 0-105 64 0c10 0 16-7 19-13 0-3 3-7 3-10 4-6 0-13-3-19l-45-45 77-73 45 44c6 7 16 7 22 4 4 0 7-4 10-4 6-3 13-9 13-19l0-61 105 0 0 61c0 10 7 16 13 19 3 0 7 4 10 4 6 3 16 3 22-4l45-44 77 73-48 45c-3 6-7 13-3 22 3 4 3 7 3 7z m-237-29l0 192 170-96z"/>
<glyph glyph-name="txt-document" unicode="&#57353;" d="M346 480l102-115 0-333-384 0 0 448 288 0m0 32l-320 0 0-512 448 0 0 378z m96-160l-128 0 0 128 32 0 0-96 96 0z m-304-291l-22 0 0 118-39 0 0 19 103 0 0-19-42 0z m163 0l-25 0-36 57-35-57-22 0 45 70-42 67 26 0 32-51 32 51 25 0-41-67z m67 0l-22 0 0 118-42 0 0 19 103 0 0-19-42 0 0-118z"/>
<glyph glyph-name="uncompleted" unicode="&#57354;" d="M256 480c125 0 224-99 224-224 0-125-99-224-224-224-125 0-224 99-224 224 0 125 99 224 224 224m0 32c-141 0-256-115-256-256 0-141 115-256 256-256 141 0 256 115 256 256 0 141-115 256-256 256z"/>
<glyph glyph-name="unlock" unicode="&#57355;" d="M341 256l0 85c0 94-72 171-166 171-94 0-166-77-166-171l68 0c0 56 42 103 98 103 64 0 102-43 102-103l0-89-149 0 0-256 384 0 0 256-171 0z"/>
<glyph glyph-name="unsync" unicode="&#57356;" d="M256 448c106 0 192-86 192-192 0-106-86-192-192-192-106 0-192 86-192 192 0 106 86 192 192 192m0 64c-141 0-256-115-256-256 0-141 115-256 256-256 141 0 256 115 256 256 0 141-115 256-256 256z"/>
<glyph glyph-name="visible" unicode="&#57357;" d="M260 372c71 0 138-38 205-116-33-37-112-116-213-116-71 0-138 41-205 120 33 37 116 112 213 112m0 37c-153 0-262-153-262-153 90-116 176-157 254-157 153 4 262 157 262 157-90 116-176 153-254 153z m89-153c0 52-41 93-93 93-52 0-93-41-93-93 0-52 41-93 93-93 52 0 93 41 93 93z"/>
<glyph glyph-name="word-document" unicode="&#57358;" d="M346 480l102-115 0-333-384 0 0 448 288 0m0 32l-320 0 0-512 448 0 0 378z m96-160l-128 0 0 128 32 0 0-96 96 0z m-275-74l32 0 35-160 29 160 48 0 29-160 28 167 42 0-45-224-51 0-26 153-35-153-45 0z"/>
<glyph glyph-name="wpd-document" unicode="&#57359;" d="M346 480l102-115 0-333-384 0 0 448 288 0m0 32l-320 0 0-512 448 0 0 378z m96-160l-128 0 0 128 32 0 0-96 96 0z m-253-285l-19 0-19 71c0 3-3 6-3 12 0 7-4 10-4 13 0-3 0-6-3-13 0-6-3-9-3-12l-19-71-23 0-16 61-16 58 20 0 16-71c3-9 3-22 6-29 0 4 0 10 3 16 0 7 3 10 3 13l20 71 22 0 19-71c3-6 3-16 7-29 0 7 3 16 6 29l16 67 19 0z m122 83c0-12-3-22-13-28-10-7-19-10-35-10l-10 0 0-45-19 0 0 119 35 0c16 0 26-4 32-10 7-6 10-16 10-26z m-58-22l10 0c9 0 16 3 22 6 3 4 7 10 7 16 0 7-4 13-7 16-3 4-9 7-19 7l-13 0z m173 0c0-19-6-35-16-45-10-9-26-16-48-16l-32 0 0 119 35 0c19 0 32-7 45-16 13-10 16-23 16-42z m-19 0c0 29-13 42-39 42l-16 0 0-87 13 0c29 0 42 16 42 45z"/>
<glyph glyph-name="zip-document" unicode="&#57360;" d="M346 480l102-115 0-333-384 0 0 448 288 0m0 32l-320 0 0-512 448 0 0 378z m96-160l-128 0 0 128 32 0 0-96 96 0z m-262-186l44 0 0-44-44 0z m64 0l44 0 0-44-44 0z m-64 64l44 0 0-44-44 0z m64 0l44 0 0-44-44 0z m-64 64l44 0 0-44-44 0z m64 0l44 0 0-44-44 0z m0 186l0-35-20 0 0 35-44 0 0-170 112 0 0 170z m22-144l-67 0 0 64 67 0z"/>
<glyph glyph-name="menu-squares" unicode="&#57361;" d="M0 512l128 0 0-128-128 0z m192 0l128 0 0-128-128 0z m192 0l128 0 0-128-128 0z m-384-192l128 0 0-128-128 0z m192 0l128 0 0-128-128 0z m192 0l128 0 0-128-128 0z m-384-192l128 0 0-128-128 0z m192 0l128 0 0-128-128 0z m192 0l128 0 0-128-128 0z"/>
<glyph glyph-name="grab-handle" unicode="&#89;" d="M238 370c0 23-18 41-41 41-22 0-41-18-41-41 0-22 19-41 41-41 23 0 41 19 41 41z m0-120c0 23-18 41-41 41-22 0-41-18-41-41 0-23 19-41 41-41 23 0 41 18 41 41z m0-120c0 22-18 41-41 41-22 0-41-19-41-41 0-23 19-41 41-41 23 0 41 18 41 41z m118 240c0 23-19 41-41 41-23 0-41-18-41-41 0-22 18-41 41-41 22 0 41 19 41 41z m0-120c0 23-19 41-41 41-23 0-41-18-41-41 0-23 18-41 41-41 22 0 41 18 41 41z m0-120c0 22-19 41-41 41-23 0-41-19-41-41 0-23 18-41 41-41 22 0 41 18 41 41z"/>
<glyph glyph-name="saved-search" unicode="&#57362;" d="M384 192c19 32 32 70 32 112 0 115-93 208-208 208-115 0-208-93-208-208 0-115 93-208 208-208 42 0 80 13 112 32l128-128 64 64z m-122 86l29-99-80 61-80-61 29 96-77 58 93 0 35 99 35-99 93 0z"/>
<glyph glyph-name="you-dont-have-permission" unicode="&#57364;" d="M435 339l-35 0c0 7 0 13 0 29 0 22-6 45-16 61-22 51-70 83-128 83-51 0-93-22-118-64 0 0-4-3-7-10 0 0 0 0 0-3-13-19-19-41-19-67 0-10 0-19 0-29l-35 0c-16 0-29-13-29-29l0-281c0-16 13-29 29-29l358 0c16 0 29 13 29 29l0 281c0 16-13 29-29 29z m-73 23l0-23-212 0 0 23c0 19 4 35 10 48 16 38 54 64 99 64 39 0 71-20 90-52 6-16 13-35 13-60z m-132-183c-3 3-3 10-3 16 0 16 13 29 29 29 16 0 29-13 29-32 0-10-10-22-19-26l0-67c0-3-4-9-10-9-3 0-10 3-10 9l0 67c-6 4-9 7-12 10 0 3-4 3-4 3z"/>
<glyph glyph-name="embedded-inquiries" unicode="&#57365;" d="M69 124l71 102 19-12-72-103z m171 78c-3 0-6 0-10 0-80 0-147 60-147 140 3 80 67 141 147 141 80 0 144-64 148-141 0-3 0-6 0-9 6-3 12-7 19-13 0 6 3 16 3 22-3 93-80 167-173 164-93 0-166-71-169-164 3-92 76-163 169-163 10 0 16 0 26 3-7 7-10 13-13 20z m90-26c-39 0-68 32-68 70 0 39 32 68 71 68 35 0 67-32 67-68 0-41-32-70-70-70z m0 109c-23 0-42-16-42-42 0-22 19-45 42-45 22 0 44 20 44 42 0 29-19 48-44 45z m121-279l-237 0 0 74c4 35 26 70 58 90l6 3 7-3c16-10 35-13 54-16 16 0 32 6 45 12l6 4 7-4c32-19 51-51 54-89z"/>
<glyph glyph-name="pinned" unicode="&#35;" d="M330 493l-7-7c-32-32-32-57-25-73l102-103c16-3 38 4 67 26l10 6z m-23-263c16 29 39 55 71 74l-90 86c-19-32-45-54-74-70z m-3-22l-112 109c-22 13-58 16-106-32l-9-7 89-89-134-138c-3-3-3-9 0-13 3-3 3-3 6-3 4 0 7 0 7 3l137 138 90-90 6 10c39 51 48 90 26 112z"/>
<glyph glyph-name="current" unicode="&#57366;" d="M186 474l0-160-160 0 0-272 268 0 0 160 157 0 0 272z m76-400l-201 0 0 204 125 0 0-80 76 0z m157 160l-201 0 0 204 201 0z m55-45l-32 0c3-42-4-71-23-90-6-6-13-9-22-13l-3 32-71-60 83-32-3 32c16 6 29 12 42 25 22 19 32 58 29 106z m-391 301l3-32c-16-4-28-13-38-23-22-22-32-61-32-109l32 0c-3 39 6 68 22 87 7 6 13 9 23 13l3-32 70 60z"/>
<glyph glyph-name="app-accountspayableicon" unicode="&#57367;" d="M333 42c0-13-3-29-3-42l-330 0 0 512 83 0c32-22 64-48 93-77-106-45-157-166-112-272 45-105 166-157 272-112-3 0-3-6-3-9z m179 470l0-512-115 0c0 13 0 29 0 42 0 12-3 32-3 48 44 38 70 96 73 156 0 116-93 208-208 208l-16 0c-22 20-41 39-61 58z m-179-230l0-71-151 0 0 71z m-67-23l-68 0 0-29 68 0z m51 0l-32 0 0-29 32 0z m-135-109l151 0 0 39-151 0z m0 154l151 0 0 35-151 0z m199 90l0-298-247 0 0 298z m-32-39l-183 0 0-221 183 0z"/>
<glyph glyph-name="app-adminicon" unicode="&#57368;" d="M330 42c0-13 0-29-4-42l-326 0 0 512 80 0c29-19 54-42 80-67-99-48-144-167-102-266 44-109 166-157 272-115 0-6 0-13 0-22z m182 470l0-512-122 0c4 13 4 29 4 42 0 19 0 41-4 60 45 39 71 96 71 157 0 10 0 16 0 26-16 112-122 192-234 179-16 16-32 32-48 48z m-170-202c-3-3-6-9-3-12 3-4 7-7 13-7l29 0 0-64-29 0c-6 0-10-3-13-9-3-4 0-10 3-13l23-23-39-38-22 22c-3 4-6 4-10 4-6 0-9-7-9-13l0-29-64 0 0 32c0 6-3 10-7 13-3 3-9 0-12-3l-23-23-38 39 19 19c3 3 3 6 3 9 0 10-6 13-13 10l-28 0 0 64 32 0c6 0 9 3 12 6 4 4 0 10-3 13l-22 23 38 38 23-22c3-4 9-4 12 0 4 3 7 6 4 12l0 29 64 0 0-29c0-6 3-9 6-12 3-4 10 0 13 3l22 22 39-38z m-73-70c9 10 9 26 0 35-10 10-26 10-35 0-10-9-10-25 0-35 9-10 25-10 35 0"/>
<glyph glyph-name="app-reporting" unicode="&#57369;" d="M334 74c-95-45-207-5-252 88-45 94-5 207 88 252 6 3 12 5 18 7-31 35-68 66-106 91l-82 0 0-512 332 0c1 14 2 28 2 42 0 11 0 21 0 32z m-152 438c27-24 52-49 74-78l1 0c105 0 189-84 189-188 0-49-20-97-54-133 2-24 4-47 4-71 0-14-1-28-2-42l119 0 0 512z m-19-154l0-223 186 0 0 223z m171-208l-157 0 0 191 157 0z m-149 184l0-177 142 0 0 177z m14-42l30 0 0-15-30 0z m0-24l30 0 0-14-30 0z m30-90l-30 0 0 15 30 0z m0 24l-30 0 0 14 30 0z m42-24l-30 0 0 15 30 0z m0 24l-30 0 0 14 30 0z m42-24l-30 0 0 15 30 0z m0 24l-30 0 0 14 30 0z m0 24l-114 0 0 10 114 0z m-42 42l0-15-30 0 0 15z m-30 8l0 15 30 0 0-15z m72-23l-30 0 0 15 30 0z m0 23l-30 0 0 15 30 0z m0 24l-114 0 0 11 114 0z"/>
<glyph glyph-name="app-rates" unicode="&#57370;" d="M330 42c0-13 0-29-3-42l-329 0 0 512 80 0c28-19 57-42 83-67-96-48-138-160-103-259 42-109 164-164 272-122 0-6 0-16 0-22z m180 470l0-512-122 0c3 13 3 29 3 42 0 19 0 38-3 57 45 39 70 96 70 157 0 6 0 16 0 22-16 116-118 196-233 186-16 16-35 32-51 48z m-180-227l0-125c0-3-22-16-51-16-3 0-16 0-16 0l0 54 7 0c12 0 25 4 38 7l0 19c-13-3-26-6-38-6l-7 0 0 28 7 0c12 0 25 4 38 7l0 19c-13-6-26-6-38-6l-7 0c-16 12-38 19-61 19l0 96c0 6 23 16 64 16 42 0 64-13 64-16 0-3 4-74 0-96z m-102 67c13-6 26-6 38-6 13 0 26 3 42 6 0 16-38 16-38 16-20-3-42-3-42-16z m80-32c-13-6-26-10-42-6-12-4-25 0-38 6l0-19c13-3 26-7 38-7 13 0 26 4 39 7l0 19z m-61-74l0-99c-13-13-32-16-51-16-22 0-42 7-58 23l0 99c20 13 42 16 61 16 19 0 35-10 48-23z m-89-12c3-4 6-4 9-7 10 0 19-3 26-3l6 0c7 0 13 0 19 3 4 0 10 3 13 7 0 0 3 3 0 3-3 6-19 9-35 9l-3 0c-23 0-32-3-35-9 0 0 0 0 0-3z m38-48c10 0 22 3 32 6l0 16c-10-3-22-6-32-3-13 0-29 3-42 9l0-19c16-6 29-9 42-9z"/>
<glyph glyph-name="app-disbursementsicon" unicode="&#57371;" d="M330 42c0-13 0-29-4-42l-326 0 0 512 77 0c29-19 57-42 83-67-93-48-138-160-99-259 41-109 163-164 269-122 0-6 0-16 0-22z m182 470l0-512-122 0c4 13 4 29 4 42 0 19 0 38-4 57 45 39 71 96 71 157 0 6 0 16 0 22-16 116-119 196-234 186-16 16-32 32-48 48z m-205-390c3 0 10 0 13 0 35 6 64 38 64 73 0 42-35 77-77 74-6 0-13 0-19-3-26-4-45-23-54-52-7-22 0-48 12-67 16-16 39-25 61-25z m-3 51l-48 0 0 48 48 0 0 35 64-61-64-54z m-58 96c-16 13-35 19-54 19l-3 96c0 6 22 16 64 16 41 0 64-13 64-16 0 0 0-70 0-93l-10 0c-22 0-41-9-61-22z m-35 86c13-6 26-6 42-6 13 0 25 3 38 6 0 16-38 16-38 16-19-3-42-3-42-16z m0-48c13-6 26-9 42-9 13 0 25 3 38 6l0 19c-13-3-25-6-38-6-16 0-29 3-42 6z m3-112c0-16 4-32 13-45-13-9-29-16-45-16-22 0-41 7-57 23l0 99c16 13 38 19 57 16 20 0 36-6 48-19-6-13-12-26-12-42-10-3-23-6-32-6-13 0-29 3-42 9l0-19c10-3 26-3 38-6 10 0 23 3 32 6z m-70 42c3-3 6-3 10-7 6 0 16-3 25-3l7 0c6 0 12 0 19 3 3 0 9 4 13 7 0 0 3 3 0 3-4 6-20 10-36 10l-3 0c-22 0-32-4-35-10-3 0-3 0 0-3z"/>
<glyph glyph-name="app-budgetwiseicon" unicode="&#57372;" d="M333 42c0-13 0-29-3-42l-330 0 0 512 83 0c32-22 64-48 90-74-106-44-157-166-112-272 45-105 166-156 272-112 0-6 0-9 0-12z m179 470l0-512-118 0c3 13 3 26 3 42 0 16 0 32-3 48 44 38 70 96 70 156 0 116-93 208-208 208-6 0-13 0-16 0-19 20-38 39-58 58z m-134-122l0-288-240 0 0 288z m-157-156l-45 0 0-93 45 0z m61 41l-45 0 0-134 45 0z m57 58l-45 0 0-192 45 0z"/>
<glyph glyph-name="app-otgbilling" unicode="&#103;" d="M291 250l45 0 0-23-45 0z m0-39l16 0 0-19-16 0z m0-32l16 0 0-16-16 0z m221 333l0-512-122 0c0 6 0 13 0 19 0 26 0 48-3 74 55 45 80 115 71 185-20 112-122 186-231 170-22 22-45 45-67 64z m-192-333l13 0 0-16-13 0z m6-118c0-13 0-26 0-42 0-6 0-13 0-19l-326 0 0 512 54 0c39-26 77-54 109-86-64-36-102-103-102-173 0-112 89-202 198-202 23-3 48 3 67 10z m-6 150l13 0 0-19-13 0z m-86 39l44 0 0-23-44 0z m99 12l-99 0 0 23 99 0z m-186-48l48 45 0-45z m90 173l64-61-16 0-48 45-71-64 29-19 0-6-48-48 0 67c0 3 0 3 3 6z m22-208l19 0 0-16-19 0z m0 32l19 0 0-19-19 0z m-25 0l12 0 0-19-12 0z m0-32l12 0 0-16-12 0z m131 138l-163 0 0-186 163 0z m-144-16l128 0 0-154-128 0z"/>
<glyph glyph-name="clipboard" unicode="&#69;" d="M413 465l-14 0 0-41c0-9-8-16-17-16l-263 0c-9 0-17 7-17 16l0 41-21 0c-12 0-22-9-22-22l0-409c0-12 10-22 22-22l332 0c12 0 22 10 22 22l0 409c0 13-10 22-22 22z m-39 12l-62 0 0 2c0 12-10 22-22 22l-79 0c-12 0-22-10-22-22l0-2-62 0c-4 0-7-3-7-7l0-37c0-4 3-7 7-7l247 0c4 0 7 3 7 7l0 37c0 4-3 7-7 7z"/>
<glyph glyph-name="money" unicode="&#33;" d="M107 112l-4-8c-5 2-11 4-16 4l0-15c6-3 11-5 14-7 3-2 5-4 6-6 2-3 3-5 3-8 0-6-2-10-7-14-4-3-9-5-16-6l0-10-7 0 0 10c-9 0-16 2-23 5l0 13c3-1 7-3 11-4 4-1 8-1 12-2l0 17-4 1c-7 3-12 6-15 9-2 3-4 7-4 12 0 5 2 9 6 12 4 3 9 5 17 6l0 8 7 0 0-8c6 0 11-2 16-3-10 12-19 25-26 39-36-4-65-35-65-72 0-40 33-72 72-72 35 0 64 25 71 58-18 11-34 25-48 41z m-13-41c0 1-1 3-2 4-1 1-3 2-5 3l0-13c4 1 7 3 7 6z m-20 28c1-1 3-2 6-3l0 12c-5-1-7-2-7-5 0-2 0-3 1-4z m356 235c-52 0-95 42-96 94-21 8-43 13-66 13-105 0-189-85-189-189 0-105 84-189 189-189 104 0 188 84 188 189 0 30-7 58-20 83-2-1-4-1-6-1z m5 92l0-13c5 0 7 2 7 6 0 1 0 2-1 3-2 1-3 2-6 4z m-14 24c0-1 1-2 2-3 1-1 3-2 5-3l0 12c-4-1-7-3-7-6z m9 53c-40 0-72-32-72-72 0-40 32-72 72-72 40 0 72 32 72 72 0 40-32 72-72 72z m22-97c-4-3-10-5-17-6l0-11-7 0 0 11c-8 0-16 2-22 4l0 14c3-1 6-3 11-4 4-1 8-2 11-2l0 16-3 2c-7 2-12 5-15 9-3 3-4 7-4 11 0 5 2 10 6 13 4 3 9 5 16 6l0 8 7 0 0-8c8 0 15-2 22-5l-5-12c-5 2-11 4-17 4l0-15c7-3 12-5 15-7 3-2 5-4 6-6 1-3 2-5 2-8 0-6-2-10-6-14z"/>
<glyph glyph-name="no-results" unicode="&#123;" d="M499 242l-280 0c-10 0-19 3-24 8-5 5-7 11-7 18 0 14 11 28 31 28 25 0 25-10 26-15 0-6 5-10 10-9 5 0 9 5 9 10-1 12-8 33-45 33-32 0-50-24-50-47 0-10 3-19 9-26l-81 0c-24 0-44 6-57 18-11 10-18 23-18 37 0 27 23 55 65 55 47 0 54-23 56-40 0-6 5-10 10-9 5 0 9 5 8 10-1 26-16 57-74 57-55 0-83-36-83-73 0-20 8-38 23-51 17-15 41-23 70-23l402 0c5 0 10 4 10 10 0 5-5 9-10 9z m-174 19l138 0c5 0 9 5 9 10 0 5-4 9-9 9l-138 0c-19 0-26 11-26 22-1 12 9 24 26 25 27 0 27-12 28-17 0-6 4-10 9-9 6 0 10 4 10 9-1 13-8 35-47 35-30 0-45-22-45-43 0-20 14-41 45-41z m76-57l-225 0c-16 0-30-4-40-13-8-8-13-19-13-31 0-23 18-48 53-48 24 0 40 12 47 35 1 5-2 10-7 11-5 2-10-1-12-6-4-15-12-21-28-21-23 0-34 14-34 29 0 6 2 12 7 17 6 5 15 8 27 8l225 0c5 0 9 4 9 10 0 5-4 9-9 9z"/>
<glyph glyph-name="speechbubbles" unicode="&#57363;" d="M440 302c-49 0-88 40-88 88 0 8 1 15 3 21-31 10-64 16-100 16-133 0-247-81-247-186 0-48 29-95 67-129 0-9-5-14-5-19-14-28-33-52-33-52 0 0 33-10 90 19 9 5 14 9 24 14 28-9 66-14 100-14 133 0 247 81 247 186 0 24-6 47-17 67-12-6-26-11-41-11z m0 154c-37 0-66-29-66-66 0-36 29-66 66-66 36 0 65 30 65 66 0 37-29 66-65 66z m9-109c-2-1-4-2-8-2-3 0-5 1-7 2-2 2-3 4-3 8 0 3 1 5 3 7 2 1 4 2 7 2 4 0 6-1 8-2 1-2 2-4 2-7 0-3-1-6-2-8z m-1 27l-14 0-2 56 19 0z"/>
<glyph glyph-name="app-entitymanager" unicode="&#57373;" d="M330 42c0-13-4-29-4-42l-326 0 0 512 80 0c29-19 58-42 83-67-96-48-137-160-99-259 42-109 160-160 269-119-3-9-3-16-3-25z m182 470l0-512-122 0c0 13 0 29 0 42 0 19 0 38-3 57 45 39 71 96 71 157 0 6 0 16 0 22-13 116-116 196-231 183-16 19-32 35-48 51z m-368-157c3 7 35 32 80 32 48 0 74-22 77-32-13-22-45-29-77-29-32 0-58 10-80 29z m176-89c0 17-14 32-32 32-18 0-32-15-32-32 0-18 14-32 32-32 18 0 32 14 32 32z m-115-84c-39 4-61 20-61 26l0 134c22-19 48-32 80-32 29 0 61 10 83 32l0-28c-13 3-25 3-38 0-29-13-42-42-29-68-19-16-32-41-35-64z m144-9l0-39-125 0 0 39c3 19 13 38 26 51 12-6 25-13 38-13 13 0 22 7 35 13 13-13 23-32 26-51z"/>
<glyph glyph-name="app-collections" unicode="&#57374;" d="M221 314c-10 16-19 35-26 54 3-3 3-3 7-6l-7 6c23 16 51 22 77 22 26-3 51-12 70-32 0 0-22-44-28-54l0-3c-13-10-26-16-39-16-16 3-29 6-41 13-7 6-10 9-13 16z m51 44c-19 4-38 0-54-12 19-10 38-16 57-16 19 0 35 3 51 12-19 10-35 16-54 16z m-118-185c9-7 19-10 32-10 12 0 22 3 32 10l0-32c-10-7-20-10-32-7-13 0-23 0-32 7z m32 0c-20 0-32 9-32 13 0 3 9 6 32 6 22 0 32-6 32-6-4-10-16-13-32-13z m76-55c-12 0-28 4-38 10 3 3 6 6 6 10l0 51c0 9-22 16-44 16l-13 0c0 3 0 6 0 9 6 26 25 52 51 64 10-3 19-6 29-9-10-16-16-29-19-45l22-6c3 16 10 32 16 44 6-9 10-22 13-35l19 3c0 13-3 26-10 36 7 3 16 6 23 9 29-13 48-38 54-67 7-32-29-90-109-90z m71-118l-333 0 0 512 86 0c32-22 61-45 87-70-106-45-157-167-112-272 45-106 166-157 272-112 0-4 0-7 0-10 0-16 0-48 0-48z m179 512l0-512-118 0c0 0 3 29 3 45 0 16-3 32-3 48 44 38 70 96 73 157 0 115-93 208-208 208l-16 0c-19 19-38 38-57 54z"/>
<glyph glyph-name="3-people" unicode="&#57375;" d="M160 406c0-26-21-46-46-46-25 0-46 20-46 46 0 25 21 46 46 46 25 0 46-21 46-46z m345-124c0 45-18 72-50 84-8-11-20-20-33-25 14-24 22-54 22-89 0-27 0-37 0-48 0-11 0-20 0-45 0-15-6-28-16-37 9 0 17 0 24 0 7 0 12 8 12 16 0 19 0 50 0 66 7-8 42-8 42 16 0 41-1 19-1 62z m-176 147c0-38-31-69-69-69-38 0-69 31-69 69 0 38 31 69 69 69 38 0 69-31 69-69z m92-177c0 70-31 110-83 128-17-26-45-43-78-43-33 0-62 17-78 43-53-18-83-58-83-128 0-65 0-32 0-93 0-36 51-36 62-24 0-24 0-70 0-98 0-13 7-25 18-25 22 0 50 0 81 0 31 0 59 0 81 0 11 0 18 13 18 25 0 28 0 74 0 98 11-12 62-12 62 24 0 61 0 28 0 93z m-13 109c21 5 36 23 36 45 0 25-21 46-46 46-25 0-46-21-46-46 0-3 0-5 1-8 22-8 41-21 55-37z m-332-202c0 25 0 34 0 45 0 11 0 21 0 48 0 34 7 63 20 87-16 4-29 14-39 27-32-12-50-39-50-84 0-43-1-21-1-62 0-24 35-24 42-16 0-16 0-47 0-66 0-8 5-16 12-16 9 0 20 0 31 0-10 9-15 22-15 37z"/>
<glyph glyph-name="edit" unicode="&#98;" d="M329 365l0 102-205 0-35 38-48-48 51-51 0-390 333 0 0 349z m-263 92l23 23 76-80-22-23z m90-89l19 22 6-29z m190 96l0-83 70 0z"/>
<glyph glyph-name="home" unicode="&#57388;" d="M408 41l-306 0 0 204-102 0 256 245 78-75 1 63 66 0 0-116 111-117-104 0z m-265 40l224 0 0 195 57 0-168 159-172-159 59 0z"/>
<glyph glyph-name="app-inquiries" unicode="&#101;" d="M326 237c0-14-11-26-25-26-14 0-26 12-26 26 0 14 12 25 26 25 14 0 25-11 25-25z m-268 13c0 76 41 140 105 176-35 32-70 60-109 86l-54 0 0-512 326 0c0 6 0 13 0 19 0 16 0 29 0 42-19-10-44-13-67-13-112 0-201 90-201 202z m102 262c26-19 48-42 67-64 10 3 23 3 32 3 112 0 202-89 202-201 0-64-29-119-74-157 3-23 3-48 3-74 0-6 0-13 0-19l122 0 0 512z m176-224c0 48-42 90-93 90-3 0-3 0-3 0 0 0-3 0-6 0-45-7-80-45-80-90 0-22 9-45 28-61l7-6-29-45 16-13 32 48 6-3c10-3 23-6 36-6l3 0c3 6 9 12 19 16 0 3 0 0 0 3 0 0 0 3 0 3-13-3-19-3-26-3-38 0-70 32-70 70 0 39 32 71 70 71 39 0 71-32 71-71 0-6 0-13-3-19 6-3 12-10 16-16 3 10 6 22 6 32z m-6-77c0 0-13-9-29-9-16 0-29 9-29 9-13-6-26-25-29-51l0-35 112 0 0 38c0 16-13 39-25 48z"/>
</font>
</defs>
</svg>
