<?xml version="1.0" standalone="no"?>
<!DOCTYPE svg PUBLIC "-//W3C//DTD SVG 20010904//EN"
 "http://www.w3.org/TR/2001/REC-SVG-20010904/DTD/svg10.dtd">
<svg version="1.0" xmlns="http://www.w3.org/2000/svg"
 width="260.000000pt" height="260.000000pt" viewBox="0 0 260.000000 260.000000"
 preserveAspectRatio="xMidYMid meet">
<metadata>
Created by potrace 1.11, written by Peter Selinger 2001-2013
</metadata>
<g transform="translate(0.000000,260.000000) scale(0.100000,-0.100000)"
fill="#000000" stroke="none">
<path d="M0 1300 l0 -1300 830 0 830 0 1 33 c3 94 -1 277 -6 277 -1 0 -21 -6
-43 -14 -22 -8 -53 -17 -69 -20 -15 -2 -50 -9 -78 -15 -52 -10 -269 -8 -340 4
-69 12 -217 65 -285 102 -285 156 -481 429 -530 741 -14 87 -15 233 -1 307 6
33 14 73 16 88 9 44 34 116 70 194 72 156 200 306 349 408 l78 54 -44 42
c-123 120 -278 245 -430 347 l-77 52 -136 0 -135 0 0 -1300z"/>
<path d="M865 2547 c33 -29 111 -103 173 -165 l114 -114 56 7 c445 52 881
-214 1051 -640 50 -128 69 -239 66 -390 -2 -71 -6 -139 -8 -150 -3 -11 -10
-40 -16 -65 -41 -179 -162 -387 -291 -503 l-51 -46 8 -103 c4 -57 8 -165 8
-240 l0 -138 313 0 312 0 0 1300 0 1300 -897 0 -898 -1 60 -52z"/>
<path d="M830 1785 c0 -4 58 -65 129 -134 71 -69 246 -241 388 -382 l259 -256
-151 1 c-191 1 -285 -7 -384 -34 -24 -6 -47 -8 -51 -3 -5 4 -92 175 -195 378
-102 204 -184 363 -182 355 2 -8 59 -184 126 -390 67 -206 128 -393 135 -414
7 -22 23 -48 37 -58 33 -25 123 -55 189 -63 30 -4 59 -10 65 -13 16 -10 375
-11 443 -1 150 21 214 39 263 72 67 45 66 46 -181 241 -89 71 -170 134 -179
142 -20 17 -275 219 -326 259 -21 17 -61 48 -89 71 -28 22 -98 78 -156 124
-58 45 -113 90 -122 98 -10 8 -18 11 -18 7z"/>
</g>
</svg>
